<svg xmlns="http://www.w3.org/2000/svg" xmlns:xlink="http://www.w3.org/1999/xlink" width="1920" zoomAndPan="magnify" viewBox="0 0 1440 809.999993" height="1080" preserveAspectRatio="xMidYMid meet" version="1.0"><defs><g/><clipPath id="ee03e6c960"><path d="M 200 85 L 285 85 L 285 122 L 200 122 Z M 200 85 " clip-rule="nonzero"/></clipPath><clipPath id="1ce02b8037"><path d="M 174.835938 105.894531 L 309.519531 57.101562 L 346.816406 160.054688 L 212.132812 208.847656 Z M 174.835938 105.894531 " clip-rule="nonzero"/></clipPath><clipPath id="5dbe2cb303"><path d="M 174.835938 105.894531 L 309.519531 57.101562 L 346.816406 160.054688 L 212.132812 208.847656 Z M 174.835938 105.894531 " clip-rule="nonzero"/></clipPath><clipPath id="5ab2768496"><path d="M 174.835938 105.894531 L 309.519531 57.101562 L 346.816406 160.054688 L 212.132812 208.847656 Z M 174.835938 105.894531 " clip-rule="nonzero"/></clipPath><clipPath id="5f5d108bc2"><path d="M 209 82 L 260 82 L 260 117 L 209 117 Z M 209 82 " clip-rule="nonzero"/></clipPath><clipPath id="77fd566ca2"><path d="M 174.835938 105.894531 L 309.519531 57.101562 L 346.816406 160.054688 L 212.132812 208.847656 Z M 174.835938 105.894531 " clip-rule="nonzero"/></clipPath><clipPath id="1f6e7887c5"><path d="M 174.835938 105.894531 L 309.519531 57.101562 L 346.816406 160.054688 L 212.132812 208.847656 Z M 174.835938 105.894531 " clip-rule="nonzero"/></clipPath><clipPath id="4d27dbe8d9"><path d="M 174.835938 105.894531 L 309.519531 57.101562 L 346.816406 160.054688 L 212.132812 208.847656 Z M 174.835938 105.894531 " clip-rule="nonzero"/></clipPath><clipPath id="746c936b63"><path d="M 182 90 L 344 90 L 344 207 L 182 207 Z M 182 90 " clip-rule="nonzero"/></clipPath><clipPath id="be264a7a32"><path d="M 174.835938 105.894531 L 309.519531 57.101562 L 346.816406 160.054688 L 212.132812 208.847656 Z M 174.835938 105.894531 " clip-rule="nonzero"/></clipPath><clipPath id="cf4e0b3355"><path d="M 174.835938 105.894531 L 309.519531 57.101562 L 346.816406 160.054688 L 212.132812 208.847656 Z M 174.835938 105.894531 " clip-rule="nonzero"/></clipPath><clipPath id="3f6f47ea77"><path d="M 174.835938 105.894531 L 309.519531 57.101562 L 346.816406 160.054688 L 212.132812 208.847656 Z M 174.835938 105.894531 " clip-rule="nonzero"/></clipPath><clipPath id="5d472b34f5"><path d="M 179.746094 119.449219 L 314.429688 70.65625 L 346.839844 160.121094 L 212.15625 208.914062 Z M 179.746094 119.449219 " clip-rule="nonzero"/></clipPath><clipPath id="c6d864d960"><path d="M 179.746094 119.449219 L 314.429688 70.65625 L 346.796875 160 L 212.113281 208.792969 Z M 179.746094 119.449219 " clip-rule="nonzero"/></clipPath><clipPath id="564fdb7330"><path d="M 197 94 L 334 94 L 334 173 L 197 173 Z M 197 94 " clip-rule="nonzero"/></clipPath><clipPath id="f62a709bcd"><path d="M 174.835938 105.894531 L 309.519531 57.101562 L 346.816406 160.054688 L 212.132812 208.847656 Z M 174.835938 105.894531 " clip-rule="nonzero"/></clipPath><clipPath id="c86ba37fdd"><path d="M 174.835938 105.894531 L 309.519531 57.101562 L 346.816406 160.054688 L 212.132812 208.847656 Z M 174.835938 105.894531 " clip-rule="nonzero"/></clipPath><clipPath id="4e95a9e63a"><path d="M 174.835938 105.894531 L 309.519531 57.101562 L 346.816406 160.054688 L 212.132812 208.847656 Z M 174.835938 105.894531 " clip-rule="nonzero"/></clipPath><clipPath id="24ace51b34"><path d="M 216 128 L 343 128 L 343 197 L 216 197 Z M 216 128 " clip-rule="nonzero"/></clipPath><clipPath id="8bededf184"><path d="M 174.835938 105.894531 L 309.519531 57.101562 L 346.816406 160.054688 L 212.132812 208.847656 Z M 174.835938 105.894531 " clip-rule="nonzero"/></clipPath><clipPath id="918677cbdc"><path d="M 174.835938 105.894531 L 309.519531 57.101562 L 346.816406 160.054688 L 212.132812 208.847656 Z M 174.835938 105.894531 " clip-rule="nonzero"/></clipPath><clipPath id="9837ae1ea9"><path d="M 174.835938 105.894531 L 309.519531 57.101562 L 346.816406 160.054688 L 212.132812 208.847656 Z M 174.835938 105.894531 " clip-rule="nonzero"/></clipPath></defs><g fill="#ffa7e4" fill-opacity="1"><g transform="translate(222.267856, 601.983387)"><g><path d="M 128.617188 -198.910156 L 26.421875 -198.910156 C 16.453125 -198.910156 8.226562 -190.683594 8.226562 -180.464844 L 8.226562 -18.445312 C 8.226562 -8.226562 16.453125 0 26.421875 0 L 57.578125 0 C 67.796875 0 76.023438 -8.226562 76.023438 -18.445312 L 76.023438 -65.304688 C 76.023438 -66.550781 76.773438 -67.050781 77.769531 -67.300781 L 114.410156 -67.300781 C 120.890625 -67.300781 126.375 -72.535156 126.375 -79.015625 L 126.375 -106.433594 C 126.375 -113.164062 120.890625 -118.398438 114.410156 -118.398438 L 77.769531 -118.398438 C 76.773438 -118.398438 76.023438 -119.144531 76.023438 -120.144531 L 76.023438 -143.074219 C 76.023438 -143.824219 76.773438 -144.820312 77.769531 -144.820312 L 128.617188 -144.820312 C 135.847656 -144.820312 141.578125 -150.800781 141.578125 -157.78125 L 141.578125 -185.699219 C 141.578125 -193.175781 135.847656 -198.910156 128.617188 -198.910156 Z M 128.617188 -198.910156 "/></g></g></g><g fill="#ffa7e4" fill-opacity="1"><g transform="translate(372.06162, 601.983387)"><g><path d="M 25.921875 0.25 L 56.832031 0.25 C 67.300781 0.25 74.777344 -8.226562 74.777344 -17.699219 L 74.777344 -181.460938 C 74.777344 -191.929688 67.300781 -199.40625 56.832031 -199.40625 L 25.921875 -199.40625 C 16.203125 -199.40625 8.226562 -191.929688 8.226562 -181.460938 L 8.226562 -17.699219 C 8.226562 -8.226562 16.203125 0.25 25.921875 0.25 Z M 25.921875 0.25 "/></g></g></g><g fill="#ffa7e4" fill-opacity="1"><g transform="translate(455.058816, 601.983387)"><g><path d="M 153.792969 -199.160156 L 122.386719 -199.160156 C 112.664062 -199.160156 104.191406 -191.183594 104.191406 -181.210938 L 104.191406 -122.636719 L 75.027344 -187.445312 C 72.285156 -194.421875 65.554688 -199.160156 57.828125 -199.160156 L 26.421875 -199.160156 C 16.453125 -199.160156 8.226562 -191.183594 8.226562 -181.210938 L 8.226562 -14.707031 C 8.226562 -4.734375 16.453125 3.242188 26.421875 3.242188 L 57.828125 3.242188 C 68.046875 3.242188 76.023438 -4.734375 76.023438 -14.707031 L 76.023438 -70.789062 L 105.1875 -8.972656 C 108.179688 -1.992188 114.410156 3.242188 122.386719 3.242188 L 153.792969 3.242188 C 164.011719 3.242188 171.988281 -4.734375 171.988281 -14.707031 L 171.988281 -181.210938 C 171.988281 -191.183594 164.011719 -199.160156 153.792969 -199.160156 Z M 153.792969 -199.160156 "/></g></g></g><g fill="#ffa7e4" fill-opacity="1"><g transform="translate(635.259966, 601.983387)"><g><path d="M 139.585938 -117.152344 L 94.96875 -117.152344 C 94.96875 -117.152344 89.734375 -117.152344 86.242188 -113.414062 C 83.253906 -110.421875 82.257812 -106.683594 82.257812 -104.441406 L 82.257812 -94.71875 C 82.257812 -87.988281 88.488281 -83.003906 95.21875 -83.003906 L 101.699219 -83.003906 L 101.699219 -75.027344 C 101.699219 -64.558594 93.222656 -57.578125 82.753906 -57.578125 C 72.535156 -57.578125 64.058594 -66.054688 64.058594 -76.273438 L 64.058594 -123.382812 C 64.058594 -132.109375 71.289062 -142.078125 82.753906 -142.078125 C 89.484375 -142.078125 95.464844 -138.339844 98.207031 -133.851562 C 99.953125 -131.359375 101.449219 -131.109375 103.195312 -131.109375 L 147.0625 -131.109375 C 148.308594 -131.109375 152.296875 -131.359375 155.539062 -134.601562 C 159.277344 -138.089844 159.277344 -141.828125 159.277344 -143.324219 L 159.277344 -146.316406 C 159.277344 -149.804688 153.542969 -167.753906 141.578125 -180.214844 C 130.113281 -192.179688 113.164062 -202.398438 87.738281 -202.398438 L 74.527344 -202.398438 C 53.09375 -202.398438 32.402344 -191.679688 20.4375 -177.222656 C 9.722656 -164.011719 4.238281 -147.8125 4.238281 -133.105469 L 4.238281 -66.550781 C 4.238281 -48.355469 11.464844 -32.402344 20.191406 -22.183594 C 38.386719 -0.746094 61.316406 3.242188 71.539062 3.242188 L 90.980469 3.242188 C 112.167969 3.242188 131.859375 -7.230469 142.078125 -18.945312 C 153.296875 -31.65625 160.773438 -47.109375 160.773438 -66.550781 L 160.773438 -88.984375 C 160.773438 -106.433594 151.300781 -117.152344 139.585938 -117.152344 Z M 139.585938 -117.152344 "/></g></g></g><g fill="#ffa7e4" fill-opacity="1"><g transform="translate(800.257423, 601.983387)"><g><path d="M 77.769531 -145.320312 L 128.367188 -145.320312 C 135.597656 -145.320312 141.578125 -151.300781 141.578125 -158.28125 L 141.578125 -186.199219 C 141.578125 -193.425781 135.597656 -199.160156 128.367188 -199.160156 L 26.421875 -199.160156 C 16.203125 -199.160156 8.226562 -191.183594 8.226562 -185.449219 L 8.226562 -23.179688 C 8.226562 -8.476562 16.203125 -0.5 26.421875 -0.5 L 128.367188 -0.5 C 135.597656 -0.5 141.578125 -6.230469 141.578125 -13.460938 L 141.578125 -41.378906 C 141.578125 -48.605469 135.597656 -54.835938 128.367188 -54.835938 L 77.769531 -54.835938 C 76.773438 -54.835938 76.023438 -55.585938 76.023438 -56.582031 L 76.023438 -72.535156 C 76.023438 -73.53125 76.773438 -74.28125 77.769531 -74.28125 L 114.410156 -74.28125 C 120.890625 -74.28125 126.375 -79.515625 126.375 -86.242188 L 126.375 -113.414062 C 126.375 -119.894531 120.890625 -125.378906 114.410156 -125.378906 L 77.769531 -125.378906 C 76.773438 -125.378906 76.023438 -126.125 76.023438 -126.875 L 76.023438 -143.324219 C 76.023438 -144.074219 76.773438 -145.320312 77.769531 -145.320312 Z M 77.769531 -145.320312 "/></g></g></g><g fill="#ffa7e4" fill-opacity="1"><g transform="translate(950.051167, 601.983387)"><g><path d="M 163.265625 -21.1875 L 147.8125 -81.757812 C 147.3125 -83.75 146.8125 -85.246094 146.066406 -86.492188 C 157.035156 -99.453125 164.011719 -115.40625 164.011719 -137.09375 C 164.011719 -175.230469 142.078125 -199.160156 114.910156 -199.160156 L 24.925781 -198.910156 C 15.203125 -198.910156 7.476562 -190.933594 7.476562 -176.726562 L 7.476562 -17.945312 C 7.476562 -8.722656 15.203125 -0.746094 24.925781 -0.746094 L 56.832031 -0.746094 C 61.816406 -0.746094 66.800781 -2.742188 70.042969 -6.730469 C 74.527344 -11.714844 74.28125 -14.457031 74.28125 -18.445312 L 74.28125 -60.070312 C 74.28125 -60.570312 74.527344 -61.566406 75.527344 -61.566406 C 76.523438 -61.566406 77.019531 -60.820312 77.019531 -60.320312 L 79.015625 -50.101562 L 85.496094 -19.691406 C 87.988281 -8.476562 98.957031 -0.746094 107.429688 -0.746094 L 147.8125 -0.746094 C 157.53125 -0.746094 165.757812 -9.472656 163.265625 -21.1875 Z M 96.960938 -130.613281 L 96.960938 -127.121094 C 96.960938 -119.144531 90.230469 -112.417969 82.257812 -112.417969 L 77.519531 -112.417969 C 75.527344 -112.417969 74.28125 -113.910156 74.28125 -115.65625 L 74.28125 -142.328125 C 74.28125 -144.074219 75.527344 -145.566406 77.519531 -145.566406 L 82.257812 -145.566406 C 90.230469 -145.566406 96.960938 -138.839844 96.960938 -130.613281 Z M 96.960938 -130.613281 "/></g></g></g><g fill="#ffa7e4" fill-opacity="1"><g transform="translate(1122.27661, 601.983387)"><g><path d="M 87.242188 -208.382812 C 84.25 -208.382812 4.238281 -212.617188 4.238281 -143.324219 C 4.238281 -99.953125 35.644531 -75.027344 77.769531 -75.027344 L 92.726562 -75.027344 C 100.949219 -75.027344 107.679688 -70.042969 107.679688 -61.816406 C 107.679688 -53.839844 100.949219 -48.105469 93.972656 -48.105469 C 89.984375 -48.105469 83.253906 -49.355469 80.761719 -59.324219 C 80.011719 -61.316406 79.015625 -62.5625 75.277344 -61.816406 L 8.476562 -53.839844 C 4.734375 -53.09375 3.988281 -50.601562 5.980469 -46.859375 C 16.203125 -18.445312 34.398438 8.972656 96.714844 8.972656 C 128.121094 8.972656 167.753906 -8.226562 167.753906 -63.0625 C 167.753906 -130.613281 108.179688 -125.628906 87.242188 -125.628906 C 80.761719 -125.628906 68.296875 -127.121094 68.296875 -139.085938 C 68.296875 -148.808594 76.523438 -153.046875 82.007812 -153.046875 C 85.996094 -153.046875 92.726562 -150.054688 95.21875 -143.324219 C 96.214844 -140.332031 98.457031 -139.085938 100.949219 -139.085938 L 162.019531 -147.5625 C 164.761719 -147.8125 166.753906 -150.554688 166.007812 -154.292969 C 163.265625 -167.753906 151.300781 -208.382812 87.242188 -208.382812 Z M 87.242188 -208.382812 "/></g></g></g><path stroke-linecap="butt" transform="matrix(1.300669, 0, 0, 1.300669, -85.163075, 396.754073)" fill="none" stroke-linejoin="miter" d="M 341.860563 0.0539306 L 263.259188 0.0539306 C 255.585854 0.0539306 249.269993 6.41484 249.269993 14.27738 L 249.269993 138.822658 C 249.269993 146.685198 255.585854 153.001059 263.259188 153.001059 L 287.213206 153.001059 C 295.072743 153.001059 301.391607 146.685198 301.391607 138.822658 L 301.391607 102.79853 C 301.391607 101.81346 301.998266 101.441055 302.746078 101.254853 L 330.913673 101.254853 C 335.920111 101.254853 340.130684 97.230482 340.130684 92.269093 L 340.130684 71.168173 C 340.130684 65.975533 335.920111 61.951162 330.913673 61.951162 L 302.746078 61.951162 C 301.998266 61.951162 301.391607 61.389552 301.391607 60.64174 L 301.391607 43.003582 C 301.391607 42.441972 301.998266 41.646107 302.746078 41.646107 L 341.860563 41.646107 C 347.380559 41.646107 351.825387 37.060126 351.825387 31.681284 L 351.825387 10.204956 C 351.825387 4.498759 347.380559 0.0539306 341.860563 0.0539306 Z M 378.049871 153.187261 L 401.817687 153.187261 C 409.86643 153.187261 415.62068 146.685198 415.62068 139.384268 L 415.62068 13.481515 C 415.62068 5.432773 409.86643 -0.321477 401.817687 -0.321477 L 378.049871 -0.321477 C 370.565742 -0.321477 364.436084 5.432773 364.436084 13.481515 L 364.436084 139.384268 C 364.436084 146.685198 370.565742 153.187261 378.049871 153.187261 Z M 540.162955 -0.135275 L 516.019731 -0.135275 C 508.532599 -0.135275 502.030536 5.994383 502.030536 13.667718 L 502.030536 58.722655 L 479.620195 8.895534 C 477.514908 3.513689 472.319265 -0.135275 466.378812 -0.135275 L 442.235588 -0.135275 C 434.562254 -0.135275 428.246394 5.994383 428.246394 13.667718 L 428.246394 141.67876 C 428.246394 149.352095 434.562254 155.47875 442.235588 155.47875 L 466.378812 155.47875 C 474.238349 155.47875 480.368007 149.352095 480.368007 141.67876 L 480.368007 98.587956 L 502.826401 146.123588 C 505.11789 151.457382 509.890073 155.47875 516.019731 155.47875 L 540.162955 155.47875 C 548.022492 155.47875 554.15215 149.352095 554.15215 141.67876 L 554.15215 13.667718 C 554.15215 5.994383 548.022492 -0.135275 540.162955 -0.135275 Z M 667.804597 62.936232 L 633.510347 62.936232 C 633.510347 62.936232 629.485976 62.936232 626.77403 65.789331 C 624.479538 68.08082 623.731726 70.981971 623.731726 72.71185 L 623.731726 80.198982 C 623.731726 85.346574 628.503909 89.181739 633.696549 89.181739 L 638.657938 89.181739 L 638.657938 95.311397 C 638.657938 103.36014 632.152872 108.738982 624.107133 108.738982 C 616.247596 108.738982 609.742531 102.23692 609.742531 94.374379 L 609.742531 58.115996 C 609.742531 51.424728 615.262527 43.751394 624.107133 43.751394 C 629.251721 43.751394 633.885755 46.652545 635.991041 50.067254 C 637.300464 51.986338 638.468733 52.220593 639.826207 52.220593 L 673.56185 52.220593 C 674.495864 52.220593 677.583218 51.986338 680.063912 49.505644 C 682.917011 46.838747 682.917011 43.940599 682.917011 42.817379 L 682.917011 40.522887 C 682.917011 37.810941 678.520236 24.007949 669.348273 14.463582 C 660.50667 5.246571 647.499542 -2.612966 627.942299 -2.612966 L 617.791273 -2.612966 C 601.273332 -2.612966 585.368056 5.621979 576.196093 16.755071 C 567.961149 26.9091 563.750575 39.354618 563.750575 50.676916 L 563.750575 101.81346 C 563.750575 115.805658 569.270571 128.110022 576.009891 135.921507 C 589.999086 152.439448 607.637244 155.47875 615.496781 155.47875 L 630.422993 155.47875 C 646.703677 155.47875 661.864144 147.433011 669.723681 138.450254 C 678.334033 128.671632 684.088284 116.787724 684.088284 101.81346 L 684.088284 84.595758 C 684.088284 71.168173 676.787353 62.936232 667.804597 62.936232 Z M 747.126755 41.273703 L 786.006985 41.273703 C 791.57203 41.273703 796.206063 36.687721 796.206063 31.305876 L 796.206063 9.832552 C 796.206063 4.309553 791.57203 -0.135275 786.006985 -0.135275 L 707.636862 -0.135275 C 699.777325 -0.135275 693.647667 5.994383 693.647667 10.439211 L 693.647667 135.173695 C 693.647667 146.495993 699.777325 152.625651 707.636862 152.625651 L 786.006985 152.625651 C 791.57203 152.625651 796.206063 148.228875 796.206063 142.660827 L 796.206063 121.1845 C 796.206063 115.616452 791.57203 110.844269 786.006985 110.844269 L 747.126755 110.844269 C 746.375939 110.844269 745.76928 110.282659 745.76928 109.486794 L 745.76928 97.230482 C 745.76928 96.482669 746.375939 95.873007 747.126755 95.873007 L 775.291346 95.873007 C 780.297784 95.873007 784.508358 91.848636 784.508358 86.704048 L 784.508358 65.789331 C 784.508358 60.827942 780.297784 56.617369 775.291346 56.617369 L 747.126755 56.617369 C 746.375939 56.617369 745.76928 56.01071 745.76928 55.4491 L 745.76928 42.817379 C 745.76928 42.255769 746.375939 41.273703 747.126755 41.273703 Z M 928.028246 136.717372 L 916.144338 90.163806 C 915.76893 88.620129 915.396526 87.45186 914.786863 86.514843 C 923.20801 76.550019 928.589856 64.290703 928.589856 47.589563 C 928.589856 18.298748 911.747562 -0.135275 890.832845 -0.135275 L 821.679732 0.0539306 C 814.195603 0.0539306 808.252148 6.180585 808.252148 17.130479 L 808.252148 139.198066 C 808.252148 146.309791 814.195603 152.439448 821.679732 152.439448 L 846.198364 152.439448 C 850.03353 152.439448 853.871699 150.895772 856.34939 147.805415 C 859.812151 143.970249 859.625949 141.864963 859.625949 138.822658 L 859.625949 106.819898 C 859.625949 106.447493 859.812151 105.651629 860.559963 105.651629 C 861.310779 105.651629 861.731236 106.258288 861.731236 106.633695 L 863.22686 114.493232 L 868.233298 137.840592 C 870.152382 146.495993 878.573529 152.439448 885.078595 152.439448 L 916.144338 152.439448 C 923.63147 152.439448 929.94733 145.700128 928.028246 136.717372 Z M 877.029853 52.596001 L 877.029853 55.262897 C 877.029853 61.389552 871.885265 66.585195 865.755607 66.585195 L 862.106643 66.585195 C 860.559963 66.585195 859.625949 65.413923 859.625949 64.056449 L 859.625949 43.565192 C 859.625949 42.255769 860.559963 41.084497 862.106643 41.084497 L 865.755607 41.084497 C 871.885265 41.084497 877.029853 46.277137 877.029853 52.596001 Z M 1002.004597 -7.198947 C 999.665056 -7.198947 938.185278 -10.475506 938.185278 42.817379 C 938.185278 76.174611 962.328502 95.311397 994.706671 95.311397 L 1006.215171 95.311397 C 1012.531031 95.311397 1017.678622 99.146563 1017.678622 105.465426 C 1017.678622 111.592081 1012.531031 115.99186 1007.152189 115.99186 C 1004.109884 115.99186 998.917244 115.054842 996.99816 107.381508 C 996.43655 105.837831 995.640685 104.903816 992.787586 105.465426 L 941.413785 111.592081 C 938.560686 112.201743 937.999076 114.120828 939.497704 116.973927 C 947.357241 138.822658 961.346435 159.878529 1009.257475 159.878529 C 1033.397696 159.878529 1063.904832 146.685198 1063.904832 104.528409 C 1063.904832 52.596001 1018.099079 56.431166 1002.004597 56.431166 C 996.99816 56.431166 987.40574 55.262897 987.40574 46.045886 C 987.40574 38.606806 993.721601 35.330247 997.980226 35.330247 C 1001.022531 35.330247 1006.215171 37.621736 1008.134255 42.817379 C 1008.882068 45.108868 1010.611947 46.045886 1012.531031 46.045886 L 1059.460004 39.54082 C 1061.565291 39.354618 1063.108968 37.249331 1062.547358 34.393229 C 1060.442071 24.007949 1051.22506 -7.198947 1002.004597 -7.198947 Z M 1002.004597 -7.198947 " stroke="#ff66c4" stroke-width="3.114264" stroke-opacity="1" stroke-miterlimit="4"/><g fill="#5ce1e6" fill-opacity="1"><g transform="translate(238.819082, 358.014231)"><g><path d="M 138.089844 -99.707031 C 140.335938 -101.949219 156.289062 -114.410156 156.289062 -146.566406 C 156.289062 -159.277344 152.050781 -172.488281 144.074219 -181.710938 C 135.351562 -191.933594 123.882812 -198.664062 107.683594 -198.664062 L 25.921875 -198.664062 C 18.695312 -198.664062 14.457031 -194.921875 11.21875 -190.6875 C 7.976562 -186.199219 8.226562 -181.464844 8.226562 -181.464844 L 8.226562 -17.699219 C 8.226562 -16.699219 8.226562 -11.714844 12.214844 -7.230469 C 13.957031 -4.984375 18.195312 -0.746094 25.921875 -0.746094 L 57.578125 -0.746094 L 108.429688 -0.5 C 122.386719 -0.5 134.601562 -7.230469 143.328125 -17.199219 C 151.300781 -26.421875 156.539062 -41.625 156.539062 -52.59375 C 157.285156 -80.511719 142.328125 -96.214844 138.089844 -99.707031 Z M 96.964844 -147.316406 L 96.964844 -144.074219 C 96.964844 -138.589844 92.726562 -134.351562 86.992188 -134.351562 L 72.035156 -134.351562 C 70.292969 -134.351562 69.296875 -135.351562 69.296875 -136.84375 L 69.296875 -154.292969 C 69.296875 -155.789062 70.292969 -157.035156 72.035156 -157.035156 L 86.992188 -157.035156 C 92.726562 -157.035156 96.964844 -152.550781 96.964844 -147.316406 Z M 96.964844 -63.8125 L 96.964844 -56.582031 C 96.964844 -51.097656 92.726562 -46.613281 86.992188 -46.613281 L 72.035156 -46.613281 C 70.292969 -46.613281 69.296875 -48.109375 69.296875 -49.355469 L 69.296875 -71.289062 C 69.296875 -72.785156 70.292969 -73.78125 72.035156 -73.78125 L 86.992188 -73.78125 C 92.726562 -73.78125 96.964844 -69.542969 96.964844 -63.8125 Z M 96.964844 -63.8125 "/></g></g></g><g fill="#5ce1e6" fill-opacity="1"><g transform="translate(399.587889, 358.014231)"><g><path d="M 151.800781 -198.910156 L 112.417969 -198.910156 C 104.441406 -198.910156 97.960938 -191.933594 97.960938 -183.957031 L 97.960938 -70.789062 C 97.960938 -64.808594 92.976562 -60.074219 86.992188 -60.074219 C 81.257812 -60.074219 76.273438 -64.808594 76.273438 -70.789062 L 76.273438 -189.6875 C 76.273438 -194.675781 72.285156 -198.664062 67.550781 -198.664062 L 12.960938 -198.664062 C 8.226562 -198.664062 4.238281 -194.675781 4.238281 -189.6875 L 4.238281 -71.289062 C 4.238281 -29.414062 43.371094 4.734375 85.246094 4.734375 C 126.375 4.734375 164.761719 -27.417969 166.507812 -68.046875 L 166.507812 -183.957031 C 166.507812 -191.933594 159.777344 -198.910156 151.800781 -198.910156 Z M 151.800781 -198.910156 "/></g></g></g><g fill="#5ce1e6" fill-opacity="1"><g transform="translate(570.326851, 358.014231)"><g><path d="M 167.007812 -199.410156 L 25.675781 -199.410156 C 16.203125 -199.410156 8.226562 -191.683594 8.226562 -181.960938 L 8.226562 -147.8125 C 8.226562 -138.339844 16.203125 -130.363281 25.675781 -130.363281 L 60.074219 -130.363281 C 61.070312 -130.363281 61.816406 -129.367188 61.816406 -128.621094 L 61.816406 -16.949219 C 61.816406 -7.476562 69.542969 0.5 79.515625 0.5 L 113.414062 0.5 C 122.886719 0.5 130.863281 -7.476562 130.863281 -16.949219 L 130.863281 -128.621094 C 130.863281 -129.367188 131.859375 -130.363281 132.855469 -130.363281 L 167.007812 -130.363281 C 176.476562 -130.363281 184.453125 -138.339844 184.453125 -147.8125 L 184.453125 -181.960938 C 184.453125 -191.683594 176.476562 -199.410156 167.007812 -199.410156 Z M 167.007812 -199.410156 "/></g></g></g><g fill="#5ce1e6" fill-opacity="1"><g transform="translate(763.000177, 358.014231)"><g><path d="M 167.007812 -199.410156 L 25.675781 -199.410156 C 16.203125 -199.410156 8.226562 -191.683594 8.226562 -181.960938 L 8.226562 -147.8125 C 8.226562 -138.339844 16.203125 -130.363281 25.675781 -130.363281 L 60.074219 -130.363281 C 61.070312 -130.363281 61.816406 -129.367188 61.816406 -128.621094 L 61.816406 -16.949219 C 61.816406 -7.476562 69.542969 0.5 79.515625 0.5 L 113.414062 0.5 C 122.886719 0.5 130.863281 -7.476562 130.863281 -16.949219 L 130.863281 -128.621094 C 130.863281 -129.367188 131.859375 -130.363281 132.855469 -130.363281 L 167.007812 -130.363281 C 176.476562 -130.363281 184.453125 -138.339844 184.453125 -147.8125 L 184.453125 -181.960938 C 184.453125 -191.683594 176.476562 -199.410156 167.007812 -199.410156 Z M 167.007812 -199.410156 "/></g></g></g><g fill="#5ce1e6" fill-opacity="1"><g transform="translate(955.673503, 358.014231)"><g><path d="M 77.769531 -145.320312 L 128.371094 -145.320312 C 135.597656 -145.320312 141.582031 -151.300781 141.582031 -158.28125 L 141.582031 -186.199219 C 141.582031 -193.429688 135.597656 -199.160156 128.371094 -199.160156 L 26.421875 -199.160156 C 16.203125 -199.160156 8.226562 -191.183594 8.226562 -185.453125 L 8.226562 -23.179688 C 8.226562 -8.476562 16.203125 -0.5 26.421875 -0.5 L 128.371094 -0.5 C 135.597656 -0.5 141.582031 -6.230469 141.582031 -13.460938 L 141.582031 -41.378906 C 141.582031 -48.605469 135.597656 -54.835938 128.371094 -54.835938 L 77.769531 -54.835938 C 76.773438 -54.835938 76.023438 -55.585938 76.023438 -56.582031 L 76.023438 -72.535156 C 76.023438 -73.53125 76.773438 -74.28125 77.769531 -74.28125 L 114.410156 -74.28125 C 120.894531 -74.28125 126.375 -79.515625 126.375 -86.246094 L 126.375 -113.414062 C 126.375 -119.894531 120.894531 -125.378906 114.410156 -125.378906 L 77.769531 -125.378906 C 76.773438 -125.378906 76.023438 -126.128906 76.023438 -126.875 L 76.023438 -143.328125 C 76.023438 -144.074219 76.773438 -145.320312 77.769531 -145.320312 Z M 77.769531 -145.320312 "/></g></g></g><g fill="#5ce1e6" fill-opacity="1"><g transform="translate(1105.475166, 358.014231)"><g><path d="M 163.265625 -21.1875 L 147.8125 -81.757812 C 147.316406 -83.753906 146.816406 -85.246094 146.066406 -86.496094 C 157.035156 -99.457031 164.015625 -115.410156 164.015625 -137.09375 C 164.015625 -175.230469 142.078125 -199.160156 114.910156 -199.160156 L 24.925781 -198.910156 C 15.203125 -198.910156 7.476562 -190.933594 7.476562 -176.726562 L 7.476562 -17.945312 C 7.476562 -8.722656 15.203125 -0.746094 24.925781 -0.746094 L 56.832031 -0.746094 C 61.816406 -0.746094 66.800781 -2.742188 70.042969 -6.730469 C 74.53125 -11.714844 74.28125 -14.457031 74.28125 -18.445312 L 74.28125 -60.074219 C 74.28125 -60.570312 74.53125 -61.566406 75.527344 -61.566406 C 76.523438 -61.566406 77.023438 -60.820312 77.023438 -60.320312 L 79.015625 -50.101562 L 85.496094 -19.691406 C 87.988281 -8.476562 98.957031 -0.746094 107.433594 -0.746094 L 147.8125 -0.746094 C 157.535156 -0.746094 165.761719 -9.472656 163.265625 -21.1875 Z M 96.964844 -130.613281 L 96.964844 -127.125 C 96.964844 -119.148438 90.234375 -112.417969 82.257812 -112.417969 L 77.519531 -112.417969 C 75.527344 -112.417969 74.28125 -113.914062 74.28125 -115.65625 L 74.28125 -142.328125 C 74.28125 -144.074219 75.527344 -145.570312 77.519531 -145.570312 L 82.257812 -145.570312 C 90.234375 -145.570312 96.964844 -138.839844 96.964844 -130.613281 Z M 96.964844 -130.613281 "/></g></g></g><path stroke-linecap="butt" transform="matrix(0.979808, 0, 0, 0.979808, -85.163075, 152.886327)" fill="none" stroke-linejoin="miter" d="M 480.330855 101.263903 C 482.631211 98.967533 498.905132 86.233847 498.905132 53.438825 C 498.905132 40.45796 494.619374 26.982738 486.418625 17.542109 C 477.536141 7.108779 465.858945 0.211698 449.278043 0.211698 L 365.863229 0.211698 C 358.475778 0.211698 354.190019 4.0629 350.833174 8.412447 C 347.544104 12.945384 347.791282 17.789288 347.791282 17.789288 L 347.791282 184.925895 C 347.791282 185.982384 347.791282 191.013665 351.889663 195.61039 C 353.627887 197.906759 357.977434 202.256306 365.863229 202.256306 L 398.159908 202.256306 L 450.083367 202.503485 C 464.308098 202.503485 476.790619 195.61039 485.673102 185.424239 C 493.810063 176.043411 499.152311 160.518999 499.152311 149.336159 C 499.957635 120.830882 484.680401 104.804138 480.330855 101.263903 Z M 438.346369 52.633501 L 438.346369 55.986359 C 438.346369 61.575786 434.06061 65.861544 428.224005 65.861544 L 412.942784 65.861544 C 411.140773 65.861544 410.148071 64.868843 410.148071 63.317996 L 410.148071 45.553029 C 410.148071 43.998196 411.140773 42.758316 412.942784 42.758316 L 428.224005 42.758316 C 434.06061 42.758316 438.346369 47.291253 438.346369 52.633501 Z M 438.346369 137.84634 L 438.346369 145.237778 C 438.346369 150.827204 434.06061 155.423929 428.224005 155.423929 L 412.942784 155.423929 C 411.140773 155.423929 410.148071 153.873083 410.148071 152.629216 L 410.148071 130.271511 C 410.148071 128.716677 411.140773 127.723976 412.942784 127.723976 L 428.224005 127.723976 C 434.06061 127.723976 438.346369 132.009735 438.346369 137.84634 Z M 658.387175 -0.0354806 L 618.204701 -0.0354806 C 610.06774 -0.0354806 603.485613 7.108779 603.485613 15.241753 L 603.485613 130.765868 C 603.485613 136.853638 598.390544 141.697542 592.302773 141.697542 C 586.40238 141.697542 581.311298 136.853638 581.311298 130.765868 L 581.311298 9.405148 C 581.311298 4.314066 577.272718 0.211698 572.428814 0.211698 L 516.717941 0.211698 C 511.874037 0.211698 507.835457 4.314066 507.835457 9.405148 L 507.835457 130.271511 C 507.835457 173.001519 547.770753 207.845732 590.504748 207.845732 C 632.489234 207.845732 671.619205 174.986922 673.421217 133.560581 L 673.421217 15.241753 C 673.421217 7.108779 666.587924 -0.0354806 658.387175 -0.0354806 Z M 848.172521 -0.533825 L 703.955751 -0.533825 C 694.267944 -0.533825 686.130983 7.355958 686.130983 17.294931 L 686.130983 52.135157 C 686.130983 61.826951 694.267944 69.959925 703.955751 69.959925 L 739.047143 69.959925 C 740.103632 69.959925 740.849155 70.956613 740.849155 71.702136 L 740.849155 185.671417 C 740.849155 195.359225 748.734951 203.496186 758.921102 203.496186 L 793.518137 203.496186 C 803.146143 203.496186 811.279117 195.359225 811.279117 185.671417 L 811.279117 71.702136 C 811.279117 70.956613 812.335606 69.959925 813.332294 69.959925 L 848.172521 69.959925 C 857.864315 69.959925 866.001276 61.826951 866.001276 52.135157 L 866.001276 17.294931 C 866.001276 7.355958 857.864315 -0.533825 848.172521 -0.533825 Z M 1044.819066 -0.533825 L 900.59831 -0.533825 C 890.910503 -0.533825 882.773542 7.355958 882.773542 17.294931 L 882.773542 52.135157 C 882.773542 61.826951 890.910503 69.959925 900.59831 69.959925 L 935.693689 69.959925 C 936.746191 69.959925 937.491714 70.956613 937.491714 71.702136 L 937.491714 185.671417 C 937.491714 195.359225 945.381496 203.496186 955.567648 203.496186 L 990.160696 203.496186 C 999.788702 203.496186 1007.925663 195.359225 1007.925663 185.671417 L 1007.925663 71.702136 C 1007.925663 70.956613 1008.982152 69.959925 1009.974853 69.959925 L 1044.819066 69.959925 C 1054.506874 69.959925 1062.643835 61.826951 1062.643835 52.135157 L 1062.643835 17.294931 C 1062.643835 7.355958 1054.506874 -0.533825 1044.819066 -0.533825 Z M 1150.408195 54.682691 L 1202.020687 54.682691 C 1209.412125 54.682691 1215.563684 48.594921 1215.563684 41.454648 L 1215.563684 12.945384 C 1215.563684 5.617734 1209.412125 -0.282659 1202.020687 -0.282659 L 1097.990379 -0.282659 C 1087.553062 -0.282659 1079.420088 7.854302 1079.420088 13.754695 L 1079.420088 179.336468 C 1079.420088 194.366524 1087.553062 202.503485 1097.990379 202.503485 L 1202.020687 202.503485 C 1209.412125 202.503485 1215.563684 196.662893 1215.563684 189.275441 L 1215.563684 160.766177 C 1215.563684 153.374739 1209.412125 147.03979 1202.020687 147.03979 L 1150.408195 147.03979 C 1149.415494 147.03979 1148.61017 146.294267 1148.61017 145.237778 L 1148.61017 128.963856 C 1148.61017 127.971155 1149.415494 127.165831 1150.408195 127.165831 L 1187.799942 127.165831 C 1194.445858 127.165831 1200.035285 121.823583 1200.035285 114.99029 L 1200.035285 87.226549 C 1200.035285 80.644421 1194.445858 75.054995 1187.799942 75.054995 L 1150.408195 75.054995 C 1149.415494 75.054995 1148.61017 74.245684 1148.61017 73.500161 L 1148.61017 56.731882 C 1148.61017 55.986359 1149.415494 54.682691 1150.408195 54.682691 Z M 1390.562166 181.385659 L 1374.786588 119.587015 C 1374.288244 117.537825 1373.793887 115.982991 1372.984576 114.743111 C 1384.163429 101.515068 1391.307688 85.241146 1391.307688 63.066831 C 1391.307688 24.188025 1368.949983 -0.282659 1341.186241 -0.282659 L 1249.387288 -0.0354806 C 1239.448315 -0.0354806 1231.56252 8.10148 1231.56252 22.633192 L 1231.56252 184.678716 C 1231.56252 194.119345 1239.448315 202.256306 1249.387288 202.256306 L 1281.931145 202.256306 C 1287.026215 202.256306 1292.117297 200.203129 1295.410354 196.104747 C 1300.007079 191.013665 1299.759901 188.218952 1299.759901 184.180372 L 1299.759901 141.697542 C 1299.759901 141.199198 1300.007079 140.146695 1300.999781 140.146695 C 1301.992482 140.146695 1302.554614 140.952019 1302.554614 141.450363 L 1304.540016 151.883694 L 1311.185932 182.876704 C 1313.733467 194.366524 1324.912319 202.256306 1333.547624 202.256306 L 1374.786588 202.256306 C 1384.725561 202.256306 1393.1097 193.310034 1390.562166 181.385659 Z M 1322.863129 69.712747 L 1322.863129 73.252983 C 1322.863129 81.389944 1316.029836 88.283038 1307.892875 88.283038 L 1303.048971 88.283038 C 1300.999781 88.283038 1299.759901 86.732191 1299.759901 84.930179 L 1299.759901 57.724583 C 1299.759901 55.986359 1300.999781 54.435513 1303.048971 54.435513 L 1307.892875 54.435513 C 1316.029836 54.435513 1322.863129 61.328607 1322.863129 69.712747 Z M 1322.863129 69.712747 " stroke="#b2edef" stroke-width="4.134098" stroke-opacity="1" stroke-miterlimit="4"/><g clip-path="url(#ee03e6c960)"><g clip-path="url(#1ce02b8037)"><g clip-path="url(#5dbe2cb303)"><g clip-path="url(#5ab2768496)"><path fill="#c2e5f8" d="M 283.367188 93.398438 C 281.6875 91.414062 278.976562 90.550781 276.351562 91.65625 C 273.410156 92.894531 271.742188 96.339844 273.234375 99.273438 C 274.820312 102.398438 278.636719 103.210938 281.613281 101.71875 C 285.023438 100.011719 285.902344 96.390625 283.367188 93.398438 Z M 271.105469 95.925781 C 273.050781 100.277344 270.097656 104.652344 265.714844 105.710938 C 262.457031 106.496094 259.027344 105.171875 257.101562 102.574219 C 256.976562 103.023438 256.835938 103.433594 256.613281 103.882812 C 256.347656 104.425781 255.859375 104.925781 255.273438 105.253906 C 255.039062 105.390625 254.777344 105.507812 254.480469 105.617188 C 254.230469 105.707031 253.980469 105.78125 253.738281 105.847656 C 253.625 105.875 253.535156 105.898438 253.441406 105.921875 C 253.421875 105.929688 253.398438 105.933594 253.375 105.9375 C 253.050781 106.074219 252.699219 106.191406 252.316406 106.285156 C 250.042969 106.832031 248.175781 105.886719 246.328125 104.566406 C 245.339844 107.59375 243.050781 110.035156 239.410156 110.609375 C 237.816406 110.859375 236.035156 110.824219 234.265625 110.503906 C 232.621094 111.664062 230.136719 112.5625 227.128906 113.652344 C 223.003906 115.144531 218.753906 114.773438 215.648438 112.988281 C 216.070312 116.9375 213.820312 121.097656 209.671875 121.804688 C 205.265625 122.550781 201.414062 119.429688 200.601562 115.132812 C 199.929688 111.59375 200.714844 107.484375 205.226562 105.957031 C 207.203125 105.285156 209.25 105.5 211.011719 106.355469 C 210.074219 101.238281 212.5 95.300781 218.4375 93.152344 C 220.777344 92.304688 223.390625 92.765625 225.878906 93.949219 C 226.101562 93.507812 226.339844 93.078125 226.59375 92.664062 C 230.917969 85.617188 236.894531 86.699219 241.1875 90.046875 C 243.074219 87.59375 245.558594 85.742188 247.292969 85.710938 C 250.039062 85.664062 257.28125 82.8125 257.839844 92.226562 C 258.808594 91.253906 260.0625 90.625 261.542969 90.601562 C 264.640625 90.546875 269.667969 92.703125 271.105469 95.925781 " fill-opacity="1" fill-rule="nonzero"/></g></g></g></g><g clip-path="url(#5f5d108bc2)"><g clip-path="url(#77fd566ca2)"><g clip-path="url(#1f6e7887c5)"><g clip-path="url(#4d27dbe8d9)"><path fill="#a8afdc" d="M 230.46875 101.789062 C 230.378906 102.296875 230.160156 102.769531 229.851562 103.171875 C 229.542969 103.566406 229.152344 103.898438 228.699219 104.128906 C 228.589844 104.183594 228.472656 104.234375 228.355469 104.277344 C 229.003906 104.839844 229.5 105.566406 229.8125 106.347656 C 230.269531 107.472656 230.367188 108.746094 230.042969 109.925781 C 229.875 110.511719 229.589844 111.097656 229.117188 111.546875 C 228.640625 111.992188 228.035156 112.238281 227.441406 112.34375 C 226.839844 112.445312 226.238281 112.40625 225.660156 112.296875 C 225.082031 112.1875 224.523438 111.980469 224.015625 111.691406 C 223.929688 111.640625 223.894531 111.53125 223.945312 111.4375 C 223.992188 111.355469 224.097656 111.324219 224.183594 111.363281 C 225.175781 111.789062 226.300781 111.949219 227.316406 111.71875 C 227.820312 111.605469 228.285156 111.382812 228.617188 111.035156 C 228.949219 110.691406 229.164062 110.222656 229.28125 109.722656 C 229.523438 108.71875 229.410156 107.628906 229.011719 106.671875 C 228.621094 105.714844 227.917969 104.886719 227.023438 104.414062 L 227.023438 104.410156 C 226.808594 104.296875 226.726562 104.03125 226.839844 103.816406 C 226.921875 103.664062 227.082031 103.578125 227.246094 103.585938 C 227.96875 103.621094 228.714844 103.242188 229.195312 102.652344 C 229.679688 102.054688 229.847656 101.273438 229.628906 100.507812 C 229.421875 99.738281 228.914062 99.050781 228.285156 98.5 C 227.652344 97.933594 226.890625 97.496094 226.136719 97.039062 C 226.042969 96.980469 226.011719 96.863281 226.066406 96.769531 C 226.117188 96.683594 226.226562 96.652344 226.316406 96.695312 C 227.117188 97.066406 227.929688 97.464844 228.667969 98.027344 C 229.40625 98.585938 230.039062 99.359375 230.339844 100.296875 C 230.488281 100.769531 230.550781 101.277344 230.46875 101.789062 Z M 234.238281 104.445312 C 233.707031 103.898438 232.894531 103.578125 232.0625 103.378906 L 232.058594 103.378906 C 231.953125 103.351562 231.890625 103.246094 231.914062 103.140625 C 231.9375 103.050781 232.015625 102.992188 232.105469 102.992188 C 233.007812 102.996094 233.992188 103.203125 234.773438 103.875 C 235.160156 104.210938 235.445312 104.683594 235.601562 105.152344 C 235.75 105.632812 235.828125 106.097656 235.824219 106.601562 C 235.8125 107.097656 235.6875 107.648438 235.359375 108.09375 C 235.035156 108.53125 234.59375 108.828125 234.132812 109.003906 C 233.671875 109.1875 233.199219 109.257812 232.746094 109.292969 C 232.515625 109.308594 232.296875 109.316406 232.070312 109.324219 C 231.84375 109.332031 231.554688 109.328125 231.304688 109.152344 C 231.21875 109.097656 231.199219 108.980469 231.257812 108.894531 C 231.304688 108.824219 231.394531 108.800781 231.472656 108.828125 L 231.488281 108.835938 C 231.632812 108.886719 231.808594 108.863281 232.015625 108.824219 L 232.65625 108.683594 C 233.074219 108.59375 233.476562 108.476562 233.824219 108.304688 C 234.171875 108.128906 234.480469 107.894531 234.664062 107.605469 C 234.855469 107.320312 234.941406 106.96875 234.941406 106.585938 C 234.949219 106.203125 234.890625 105.78125 234.777344 105.414062 C 234.675781 105.035156 234.496094 104.722656 234.238281 104.445312 Z M 223.097656 109.464844 C 223.339844 110.617188 222.84375 111.847656 221.871094 112.484375 C 221.394531 112.792969 220.855469 112.957031 220.332031 113.035156 C 219.804688 113.109375 219.285156 113.132812 218.757812 113.097656 C 218.234375 113.0625 217.703125 112.964844 217.203125 112.769531 C 216.703125 112.574219 216.242188 112.253906 215.894531 111.835938 C 215.832031 111.753906 215.84375 111.640625 215.921875 111.574219 C 215.996094 111.511719 216.109375 111.519531 216.175781 111.589844 L 216.175781 111.59375 C 216.828125 112.292969 217.820312 112.546875 218.777344 112.5625 C 219.738281 112.5625 220.773438 112.4375 221.503906 111.9375 C 222.226562 111.445312 222.582031 110.457031 222.371094 109.628906 C 222.199219 108.804688 221.296875 108.382812 220.386719 107.972656 C 220.183594 107.882812 220.089844 107.640625 220.183594 107.4375 C 220.265625 107.253906 220.460938 107.160156 220.648438 107.207031 L 220.65625 107.210938 C 221.71875 107.46875 222.875 107.582031 223.769531 107.140625 C 224.640625 106.714844 225.15625 105.664062 225.175781 104.648438 C 225.21875 103.613281 224.777344 102.589844 223.957031 101.953125 C 223.152344 101.308594 222.046875 101.011719 221.027344 101.1875 L 221.023438 101.191406 C 220.800781 101.230469 220.589844 101.082031 220.550781 100.855469 C 220.511719 100.636719 220.652344 100.429688 220.867188 100.382812 C 221.78125 100.199219 222.675781 99.851562 223.023438 99.105469 C 223.386719 98.363281 223.238281 97.375 222.703125 96.671875 C 222.171875 95.949219 221.347656 95.414062 220.46875 95.089844 C 219.585938 94.765625 218.609375 94.664062 217.703125 94.910156 C 217.597656 94.9375 217.492188 94.875 217.464844 94.773438 C 217.4375 94.671875 217.492188 94.570312 217.585938 94.535156 C 218.574219 94.195312 219.660156 94.257812 220.640625 94.566406 C 221.621094 94.878906 222.570312 95.40625 223.242188 96.265625 C 223.914062 97.117188 224.183594 98.355469 223.710938 99.429688 C 223.523438 99.855469 223.203125 100.207031 222.835938 100.46875 C 223.429688 100.628906 223.996094 100.902344 224.484375 101.285156 C 224.988281 101.679688 225.414062 102.195312 225.683594 102.792969 C 225.953125 103.386719 226.078125 104.035156 226.058594 104.679688 C 226.03125 105.320312 225.867188 105.964844 225.546875 106.535156 C 225.242188 107.101562 224.75 107.613281 224.140625 107.902344 C 223.589844 108.171875 222.996094 108.257812 222.425781 108.265625 C 222.746094 108.585938 223.011719 109.003906 223.097656 109.464844 Z M 213.785156 94.773438 C 209.863281 98.152344 208.871094 105.972656 211.339844 110.5 C 216.570312 120.09375 238.6875 117.578125 237.140625 105.5625 C 236.617188 101.507812 229.925781 94.703125 227.394531 93.550781 C 223.175781 90.964844 217.546875 91.535156 213.785156 94.773438 Z M 255.78125 88.886719 C 255.894531 89.585938 255.710938 90.347656 255.269531 90.921875 C 254.835938 91.496094 254.097656 91.90625 253.324219 91.851562 C 253.167969 91.84375 253.011719 91.8125 252.855469 91.773438 C 252.992188 92.320312 253.011719 92.902344 252.917969 93.460938 C 252.742188 94.59375 251.996094 95.609375 251.015625 96.167969 C 250.523438 96.453125 249.976562 96.644531 249.40625 96.703125 C 248.832031 96.757812 248.246094 96.671875 247.714844 96.476562 C 247.152344 96.265625 246.644531 95.933594 246.222656 95.511719 C 246.152344 95.890625 246.023438 96.257812 245.835938 96.589844 C 245.394531 97.386719 244.636719 98.042969 243.714844 98.25 C 242.792969 98.464844 241.84375 98.195312 241.125 97.667969 C 240.402344 97.148438 239.863281 96.339844 239.78125 95.445312 C 239.769531 95.335938 239.847656 95.242188 239.953125 95.234375 C 240.054688 95.222656 240.144531 95.292969 240.164062 95.390625 C 240.304688 96.144531 240.800781 96.800781 241.4375 97.207031 C 242.078125 97.609375 242.863281 97.773438 243.550781 97.585938 C 244.246094 97.402344 244.828125 96.871094 245.152344 96.222656 C 245.480469 95.574219 245.578125 94.800781 245.332031 94.152344 C 245.253906 93.9375 245.363281 93.695312 245.578125 93.617188 C 245.785156 93.539062 246.023438 93.644531 246.105469 93.855469 L 246.105469 93.859375 C 246.4375 94.6875 247.164062 95.363281 248.007812 95.664062 C 248.851562 95.972656 249.796875 95.863281 250.582031 95.417969 C 251.371094 94.972656 251.953125 94.203125 252.105469 93.3125 C 252.25 92.542969 252.097656 91.710938 251.703125 91.035156 C 251.609375 90.921875 251.527344 90.800781 251.457031 90.664062 C 251.363281 90.472656 251.445312 90.242188 251.632812 90.152344 C 251.792969 90.070312 251.984375 90.117188 252.09375 90.25 L 252.105469 90.261719 C 252.222656 90.40625 252.328125 90.5625 252.421875 90.722656 C 252.667969 90.960938 253.015625 91.125 253.371094 91.15625 C 253.898438 91.214844 254.425781 90.960938 254.785156 90.53125 C 255.152344 90.105469 255.335938 89.53125 255.277344 88.949219 C 255.222656 88.367188 254.964844 87.792969 254.566406 87.339844 C 254.5 87.265625 254.503906 87.148438 254.582031 87.078125 C 254.652344 87.015625 254.765625 87.019531 254.832031 87.082031 C 255.324219 87.554688 255.675781 88.191406 255.78125 88.886719 Z M 257.140625 95.234375 C 257.167969 96.191406 256.863281 97.195312 256.242188 97.972656 C 255.933594 98.359375 255.542969 98.699219 255.085938 98.933594 C 254.628906 99.164062 254.085938 99.28125 253.566406 99.242188 C 253.046875 99.207031 252.535156 99.042969 252.09375 98.75 C 252.023438 98.703125 251.960938 98.648438 251.894531 98.597656 C 251.84375 99.222656 251.746094 99.855469 251.535156 100.476562 C 251.355469 100.996094 251.089844 101.484375 250.730469 101.917969 C 250.375 102.34375 249.917969 102.714844 249.378906 102.921875 C 248.292969 103.339844 247.085938 103.132812 246.167969 102.527344 C 245.257812 101.90625 244.65625 100.945312 244.402344 99.929688 C 244.378906 99.828125 244.441406 99.722656 244.546875 99.695312 C 244.640625 99.671875 244.738281 99.726562 244.773438 99.816406 C 245.113281 100.71875 245.710938 101.527344 246.511719 101.984375 C 247.289062 102.445312 248.289062 102.542969 249.074219 102.191406 C 249.863281 101.84375 250.429688 101.054688 250.714844 100.191406 C 251.011719 99.316406 251.042969 98.34375 251.058594 97.347656 L 251.058594 97.339844 C 251.058594 97.097656 251.257812 96.90625 251.5 96.910156 C 251.6875 96.910156 251.847656 97.035156 251.90625 97.207031 C 252.132812 97.871094 252.875 98.335938 253.628906 98.40625 C 254.382812 98.484375 255.140625 98.101562 255.671875 97.496094 C 256.214844 96.882812 256.503906 96.070312 256.539062 95.226562 C 256.589844 94.375 256.390625 93.503906 256.085938 92.675781 C 256.050781 92.582031 256.097656 92.476562 256.195312 92.4375 C 256.285156 92.40625 256.382812 92.445312 256.425781 92.527344 C 256.84375 93.351562 257.113281 94.273438 257.140625 95.234375 Z M 256.785156 100.660156 C 256.90625 101.171875 256.867188 101.753906 256.734375 102.242188 C 256.601562 102.742188 256.460938 103.191406 256.21875 103.6875 C 255.972656 104.179688 255.523438 104.605469 255.058594 104.871094 C 254.585938 105.136719 254.089844 105.289062 253.617188 105.421875 C 253.152344 105.527344 252.667969 105.703125 252.070312 105.664062 C 251.472656 105.621094 250.953125 105.296875 250.589844 104.929688 C 250.222656 104.546875 249.945312 104.128906 249.710938 103.703125 L 249.707031 103.699219 C 249.65625 103.605469 249.6875 103.484375 249.78125 103.433594 C 249.863281 103.386719 249.964844 103.40625 250.023438 103.476562 C 250.640625 104.1875 251.347656 104.894531 252.105469 104.882812 C 252.480469 104.878906 252.921875 104.730469 253.378906 104.589844 C 253.828125 104.457031 254.257812 104.3125 254.621094 104.101562 C 254.992188 103.894531 255.269531 103.636719 255.472656 103.273438 C 255.679688 102.917969 255.847656 102.449219 256.003906 102.027344 C 256.148438 101.601562 256.222656 101.199219 256.179688 100.753906 C 256.148438 100.3125 256.011719 99.855469 255.898438 99.386719 C 255.875 99.289062 255.9375 99.1875 256.035156 99.164062 C 256.121094 99.140625 256.207031 99.183594 256.246094 99.257812 C 256.464844 99.691406 256.660156 100.152344 256.785156 100.660156 Z M 252.828125 83.34375 C 250.09375 82.289062 247.234375 82.789062 244.730469 84.109375 C 244.566406 84.105469 238.730469 88.546875 237.21875 91.640625 C 235.824219 94.507812 236.625 97.214844 238.179688 99.855469 C 239.925781 102.8125 242.59375 105.15625 245.519531 106.898438 C 248.410156 108.621094 251.039062 108.761719 254.125 107.21875 C 256.816406 105.875 257.96875 102.660156 258.605469 99.882812 C 259.363281 96.582031 259.230469 93.050781 258.199219 89.816406 C 257.292969 86.964844 255.722656 84.460938 252.828125 83.34375 " fill-opacity="1" fill-rule="nonzero"/></g></g></g></g><g clip-path="url(#746c936b63)"><g clip-path="url(#be264a7a32)"><g clip-path="url(#cf4e0b3355)"><g clip-path="url(#3f6f47ea77)"><g clip-path="url(#5d472b34f5)"><g clip-path="url(#c6d864d960)"><path fill="#f8a2bb" d="M 321.472656 90.546875 C 321.097656 90.136719 248.675781 106.890625 213.664062 117.578125 C 208.945312 119.019531 204.234375 120.496094 199.53125 122.003906 C 198.703125 119.972656 197.25 118.121094 195.554688 116.832031 C 193.226562 115.054688 190.492188 115.289062 188.019531 116.640625 C 185.617188 117.953125 183.117188 120.15625 182.363281 122.894531 C 181.582031 125.734375 182.988281 128.691406 184.40625 131.179688 C 196.863281 155.433594 209.226562 179.839844 217.976562 205.726562 C 218.128906 206.175781 218.667969 206.425781 219.109375 206.257812 C 235.921875 199.8125 252.738281 193.363281 269.550781 186.917969 C 277.882812 183.722656 343.230469 156.925781 343.664062 155.519531 C 344.402344 153.136719 322.992188 94.320312 322.992188 94.320312 C 322.097656 91.957031 321.539062 90.566406 321.472656 90.546875 " fill-opacity="1" fill-rule="nonzero"/></g></g></g></g></g></g><g clip-path="url(#564fdb7330)"><g clip-path="url(#f62a709bcd)"><g clip-path="url(#c86ba37fdd)"><g clip-path="url(#4e95a9e63a)"><path fill="#fcedab" d="M 322.992188 94.320312 C 291 104.175781 258.988281 113.984375 227.015625 123.910156 C 217.730469 126.792969 197.570312 133.199219 197.929688 134.113281 C 197.835938 134.5 208.859375 159.914062 214.683594 172.035156 C 214.882812 172.449219 215.339844 172.769531 215.816406 172.570312 C 247.996094 158.992188 280.257812 145.621094 312.613281 132.46875 C 319.644531 129.609375 326.683594 126.761719 333.722656 123.921875 C 333.53125 123.367188 323.1875 94.832031 322.992188 94.320312 " fill-opacity="1" fill-rule="nonzero"/></g></g></g></g><g clip-path="url(#24ace51b34)"><g clip-path="url(#8bededf184)"><g clip-path="url(#918677cbdc)"><g clip-path="url(#9837ae1ea9)"><path fill="#fbccb2" d="M 244.824219 164.757812 C 235.410156 168.503906 225.996094 172.253906 216.578125 176 C 216.082031 176.199219 215.957031 176.675781 216.070312 177.078125 C 216.0625 177.203125 216.082031 177.339844 216.148438 177.484375 L 224.476562 195.820312 C 224.6875 196.28125 225.117188 196.496094 225.609375 196.351562 C 242.144531 191.59375 257.96875 184.742188 273.832031 178.148438 C 289.9375 171.449219 306.046875 164.753906 322.152344 158.054688 C 328.878906 155.261719 335.601562 152.464844 342.328125 149.667969 C 342.167969 149.132812 335.589844 129.265625 335.394531 128.707031 C 305.203125 140.722656 275.015625 152.742188 244.824219 164.757812 " fill-opacity="1" fill-rule="nonzero"/></g></g></g></g></svg>